<?xml version="1.0" standalone="no"?>
<!DOCTYPE svg PUBLIC "-//W3C//DTD SVG 20010904//EN"
 "http://www.w3.org/TR/2001/REC-SVG-20010904/DTD/svg10.dtd">
<svg version="1.0" xmlns="http://www.w3.org/2000/svg"
 width="500.000000pt" height="500.000000pt" viewBox="0 0 500.000000 500.000000"
 preserveAspectRatio="xMidYMid meet">

<g transform="translate(0.000000,500.000000) scale(0.100000,-0.100000)"
fill="#000000" stroke="none">
<path d="M1010 3831 c0 -4 31 -11 69 -15 47 -5 81 -14 103 -29 66 -45 63 -11
66 -775 l3 -693 137 3 137 3 3 245 2 245 70 78 69 77 218 -325 218 -325 168 0
c132 0 167 3 160 13 -4 6 -114 167 -243 357 -130 190 -258 378 -285 418 l-48
73 30 32 c16 18 111 122 210 232 270 301 329 350 434 362 32 4 49 11 49 19 0
12 -50 14 -275 14 -227 0 -275 -2 -275 -14 0 -10 22 -15 85 -18 140 -7 174
-53 116 -153 -16 -27 -179 -218 -362 -423 l-334 -374 -3 427 c-2 470 -3 466
60 505 18 11 61 22 100 26 156 15 45 24 -307 24 -206 0 -375 -4 -375 -9z"/>
<path d="M2560 2931 c0 -5 21 -11 48 -15 62 -8 107 -37 130 -83 11 -21 57
-145 103 -275 l83 -238 139 0 c139 0 139 0 134 23 -2 12 -37 116 -76 231 -103
301 -97 332 68 343 44 3 81 10 81 14 0 5 -160 9 -355 9 -195 0 -355 -4 -355
-9z"/>
<path d="M3630 2931 c0 -4 51 -10 113 -13 116 -5 168 -21 181 -53 15 -39 2
-102 -65 -312 -65 -203 -76 -255 -50 -227 5 5 43 115 85 245 101 313 117 335
244 346 155 13 59 23 -218 23 -159 0 -290 -4 -290 -9z"/>
<path d="M2025 2234 c-62 -41 -105 -103 -119 -170 -15 -69 41 -134 115 -134
32 0 99 34 99 51 0 14 -9 11 -33 -11 -63 -60 -167 -18 -167 67 1 87 93 203
161 203 39 0 36 -13 -11 -56 -41 -38 -51 -70 -24 -81 20 -8 71 41 84 83 8 24
18 34 38 37 27 4 27 4 -3 6 -16 1 -39 8 -49 16 -28 21 -48 19 -91 -11z m95
-44 c0 -18 -56 -73 -70 -68 -9 3 -3 15 20 41 32 36 50 46 50 27z"/>
<path d="M3080 2247 c-51 -26 -40 -70 40 -160 70 -80 80 -120 33 -138 -32 -12
-97 -6 -118 11 -19 16 -9 36 32 61 19 12 32 24 29 27 -11 10 -86 -48 -86 -68
0 -30 39 -50 97 -50 40 0 58 5 73 20 36 36 25 63 -57 155 -81 89 -82 135 -1
135 39 0 124 -36 146 -63 26 -31 2 -51 -73 -60 -23 -3 -20 -4 13 -6 23 0 42
-4 42 -8 0 -5 -7 -33 -15 -63 -8 -30 -15 -68 -15 -83 l0 -29 31 27 32 26 21
-21 c26 -24 56 -26 96 -5 25 13 29 13 34 0 4 -12 17 -14 63 -9 32 4 73 13 91
20 39 16 40 10 12 -64 -11 -29 -20 -65 -20 -80 1 -25 1 -26 15 -8 8 10 19 44
25 75 13 64 34 101 55 101 22 0 18 -16 -7 -36 -22 -15 -20 -16 44 -10 38 3 85
14 109 26 54 28 42 38 -14 11 -58 -28 -107 -28 -107 -1 0 25 -25 36 -45 20
-12 -10 -15 -9 -15 5 0 14 -5 12 -31 -9 -39 -33 -104 -37 -112 -6 -7 27 -33
25 -76 -4 -53 -37 -83 -41 -105 -17 -21 24 -46 27 -64 9 -24 -24 -13 14 18 63
17 26 33 62 36 81 5 30 1 38 -34 70 -24 22 -63 43 -93 52 -63 19 -67 19 -99 3z
m206 -142 c-8 -19 -20 -43 -26 -52 -9 -15 -10 -13 -5 12 6 29 31 75 40 75 3 0
-1 -16 -9 -35z m180 -153 c-4 -3 -11 -1 -18 6 -8 8 -8 15 3 28 13 16 14 16 17
-5 2 -13 1 -25 -2 -29z"/>
<path d="M2348 2051 c-24 -55 -59 -81 -111 -81 -26 0 -36 5 -40 20 -7 26 -43
26 -57 -1 -21 -39 -6 -50 57 -43 32 4 73 13 91 20 l33 13 -8 -52 c-13 -102 -7
-145 20 -118 8 8 11 39 10 89 l-2 77 74 0 75 0 -7 -50 c-13 -100 -6 -142 20
-116 8 8 11 39 10 89 l-2 77 80 0 c57 0 79 -3 79 -13 0 -16 42 -32 83 -32 34
0 130 40 141 59 10 16 2 14 -39 -10 -46 -28 -104 -40 -140 -31 -40 11 -41 26
-3 37 34 10 45 37 17 43 -9 2 -34 -9 -55 -23 -35 -24 -45 -26 -93 -21 -30 4
-57 8 -59 11 -2 2 8 21 22 42 30 43 33 63 10 63 -9 0 -25 -22 -39 -54 -15 -33
-32 -57 -45 -61 -21 -7 -120 3 -120 11 0 3 11 22 25 42 29 42 32 62 9 62 -9 0
-24 -20 -36 -49z m382 -40 c0 -5 -7 -12 -16 -15 -24 -9 -28 -7 -14 9 14 17 30
20 30 6z m-557 -53 c-2 -5 -8 -8 -14 -8 -11 0 -12 33 -2 44 8 8 23 -25 16 -36z
m154 -115 c-2 -16 -4 -3 -4 27 0 30 2 43 4 28 2 -16 2 -40 0 -55z m170 0 c-2
-16 -4 -3 -4 27 0 30 2 43 4 28 2 -16 2 -40 0 -55z"/>
<path d="M3100 1825 c0 -4 48 -143 107 -310 l107 -305 70 0 71 0 98 306 c54
168 96 308 93 311 -13 13 -27 -20 -81 -197 -32 -104 -62 -190 -66 -190 -3 0
-9 15 -13 33 -3 17 -29 105 -58 195 l-51 162 -139 0 c-76 0 -138 -2 -138 -5z"/>
</g>
</svg>
